<svg xmlns="http://www.w3.org/2000/svg" width="1000" height="690"><rect width="100%" height="100%" fill="#fffaf1"/><g transform="translate(0 0)"><text x="12" y="22" font-size="17">蒼 14획</text><svg x="10" y="35" width="180" height="180" viewBox="0 0 100 100"><path d="M34 15 L38.4 28.2" fill="none" stroke="#28231d" stroke-width="5" stroke-linecap="round" stroke-linejoin="round"/><path d="M17.6 23.1 L42.7 20.1" fill="none" stroke="#28231d" stroke-width="5" stroke-linecap="round" stroke-linejoin="round"/><path d="M51.9 19.7 L74 17.7" fill="none" stroke="#28231d" stroke-width="5" stroke-linecap="round" stroke-linejoin="round"/><path d="M57.5 11 L55.2 21.1 L52.1 28.2" fill="none" stroke="#28231d" stroke-width="5" stroke-linecap="round" stroke-linejoin="round"/><path d="M46.4 27.8 L38.8 35.9 L29.7 45.4 L20.8 52.6 L11.8 57.9" fill="none" stroke="#28231d" stroke-width="5" stroke-linecap="round" stroke-linejoin="round"/><path d="M46.2 30.8 L57.2 39 L64.1 43.7 L74.4 48.8 L88.2 49.5" fill="none" stroke="#28231d" stroke-width="5" stroke-linecap="round" stroke-linejoin="round"/><path d="M42.1 38.1 L47.1 43.2" fill="none" stroke="#28231d" stroke-width="5" stroke-linecap="round" stroke-linejoin="round"/><path d="M35.5 49 L54 45.5 L57 48.2 L52.8 63" fill="none" stroke="#28231d" stroke-width="5" stroke-linecap="round" stroke-linejoin="round"/><path d="M34.1 56.6 L54.7 54" fill="none" stroke="#28231d" stroke-width="5" stroke-linecap="round" stroke-linejoin="round"/><path d="M33.1 64.3 L52.8 61.2" fill="none" stroke="#28231d" stroke-width="5" stroke-linecap="round" stroke-linejoin="round"/><path d="M34.3 47.5 L33.1 61.8 L30.4 70.6 L27.5 76.2 L22.1 82.5 L14.3 87.1" fill="none" stroke="#28231d" stroke-width="5" stroke-linecap="round" stroke-linejoin="round"/><path d="M32.6 72.7 L37.4 90" fill="none" stroke="#28231d" stroke-width="5" stroke-linecap="round" stroke-linejoin="round"/><path d="M35 74 L57.4 71.2 L60.4 74.2 L55.4 85" fill="none" stroke="#28231d" stroke-width="5" stroke-linecap="round" stroke-linejoin="round"/><path d="M37.4 87.4 L57.7 84.8" fill="none" stroke="#28231d" stroke-width="5" stroke-linecap="round" stroke-linejoin="round"/></svg></g><g transform="translate(200 0)"><text x="12" y="22" font-size="17">倉 10획</text><svg x="10" y="35" width="180" height="180" viewBox="0 0 100 100"><path d="M43.9 11.1 L42 21.3 L37.2 28.4 L31.5 35.7 L25.9 41.3 L17.6 48.2 L11.5 51.9" fill="none" stroke="#28231d" stroke-width="5" stroke-linecap="round" stroke-linejoin="round"/><path d="M46.1 17 L58.2 27.2 L66 33.2 L74.2 38 L88.5 39.8" fill="none" stroke="#28231d" stroke-width="5" stroke-linecap="round" stroke-linejoin="round"/><path d="M43.4 29.4 L49.4 34.8" fill="none" stroke="#28231d" stroke-width="5" stroke-linecap="round" stroke-linejoin="round"/><path d="M37 43.8 L56 40.1 L60.7 43.3 L55.3 63" fill="none" stroke="#28231d" stroke-width="5" stroke-linecap="round" stroke-linejoin="round"/><path d="M35.5 54.1 L58 51.7" fill="none" stroke="#28231d" stroke-width="5" stroke-linecap="round" stroke-linejoin="round"/><path d="M33.3 63.4 L55.5 60.4" fill="none" stroke="#28231d" stroke-width="5" stroke-linecap="round" stroke-linejoin="round"/><path d="M36.5 43.3 L34.9 59.1 L32.3 68.5 L27.9 77 L25.7 79.9 L17.9 86.4 L14.7 87.7" fill="none" stroke="#28231d" stroke-width="5" stroke-linecap="round" stroke-linejoin="round"/><path d="M35.4 72.9 L38.6 76.8 L41.2 90" fill="none" stroke="#28231d" stroke-width="5" stroke-linecap="round" stroke-linejoin="round"/><path d="M38.8 74 L63.5 70.5 L66.5 73.7 L60.7 85.3" fill="none" stroke="#28231d" stroke-width="5" stroke-linecap="round" stroke-linejoin="round"/><path d="M41.2 87.4 L63.6 85.7" fill="none" stroke="#28231d" stroke-width="5" stroke-linecap="round" stroke-linejoin="round"/></svg></g><g transform="translate(400 0)"><text x="12" y="22" font-size="17">債 13획</text><svg x="10" y="35" width="180" height="180" viewBox="0 0 100 100"><path d="M35.4 16.5 L31.5 28 L23.2 39.8 L11.1 53.3" fill="none" stroke="#28231d" stroke-width="5" stroke-linecap="round" stroke-linejoin="round"/><path d="M26.5 36.1 L28 44.9 L26.7 85.3" fill="none" stroke="#28231d" stroke-width="5" stroke-linecap="round" stroke-linejoin="round"/><path d="M46.5 22.7 L75.6 18.8" fill="none" stroke="#28231d" stroke-width="5" stroke-linecap="round" stroke-linejoin="round"/><path d="M48 31 L73.5 28.3" fill="none" stroke="#28231d" stroke-width="5" stroke-linecap="round" stroke-linejoin="round"/><path d="M60.7 11 L59.3 37.6" fill="none" stroke="#28231d" stroke-width="5" stroke-linecap="round" stroke-linejoin="round"/><path d="M36.1 41.5 L84 35.8" fill="none" stroke="#28231d" stroke-width="5" stroke-linecap="round" stroke-linejoin="round"/><path d="M49 46.8 L49.1 73.4" fill="none" stroke="#28231d" stroke-width="5" stroke-linecap="round" stroke-linejoin="round"/><path d="M49 47 L69 43.5 L72.6 46 L72.1 73.1" fill="none" stroke="#28231d" stroke-width="5" stroke-linecap="round" stroke-linejoin="round"/><path d="M50 55.6 L72 52.5" fill="none" stroke="#28231d" stroke-width="5" stroke-linecap="round" stroke-linejoin="round"/><path d="M50 62.1 L72 59.6" fill="none" stroke="#28231d" stroke-width="5" stroke-linecap="round" stroke-linejoin="round"/><path d="M50 70.7 L71.8 68" fill="none" stroke="#28231d" stroke-width="5" stroke-linecap="round" stroke-linejoin="round"/><path d="M54.4 77 L37.7 89.3" fill="none" stroke="#28231d" stroke-width="5" stroke-linecap="round" stroke-linejoin="round"/><path d="M66.6 76.2 L76.4 83 L79.4 90" fill="none" stroke="#28231d" stroke-width="5" stroke-linecap="round" stroke-linejoin="round"/></svg></g><g transform="translate(600 0)"><text x="12" y="22" font-size="17">彩 11획</text><svg x="10" y="35" width="180" height="180" viewBox="0 0 100 100"><path d="M49 12 L39 17.5 L29.4 22.6" fill="none" stroke="#28231d" stroke-width="5" stroke-linecap="round" stroke-linejoin="round"/><path d="M29.4 24 L22.5 37.5" fill="none" stroke="#28231d" stroke-width="5" stroke-linecap="round" stroke-linejoin="round"/><path d="M36 26.5 L42.5 33.5" fill="none" stroke="#28231d" stroke-width="5" stroke-linecap="round" stroke-linejoin="round"/><path d="M49 24 L56 31.8" fill="none" stroke="#28231d" stroke-width="5" stroke-linecap="round" stroke-linejoin="round"/><path d="M14.2 50 L58.6 45" fill="none" stroke="#28231d" stroke-width="5" stroke-linecap="round" stroke-linejoin="round"/><path d="M41 40 L42 49 L42.9 85" fill="none" stroke="#28231d" stroke-width="5" stroke-linecap="round" stroke-linejoin="round"/><path d="M41.7 49.7 L38.3 56 L30.1 63.7 L14.7 75" fill="none" stroke="#28231d" stroke-width="5" stroke-linecap="round" stroke-linejoin="round"/><path d="M43.5 53.5 L54.9 60.9" fill="none" stroke="#28231d" stroke-width="5" stroke-linecap="round" stroke-linejoin="round"/><path d="M82 12.5 L79.5 21 L73.9 29.2 L63.3 38.2" fill="none" stroke="#28231d" stroke-width="5" stroke-linecap="round" stroke-linejoin="round"/><path d="M80.5 37.5 L77 46.5 L64.1 58.5" fill="none" stroke="#28231d" stroke-width="5" stroke-linecap="round" stroke-linejoin="round"/><path d="M84.3 56.5 L79.9 69.3 L69.8 80.3 L55.8 90" fill="none" stroke="#28231d" stroke-width="5" stroke-linecap="round" stroke-linejoin="round"/></svg></g><g transform="translate(800 0)"><text x="12" y="22" font-size="17">菜 12획</text><svg x="10" y="35" width="180" height="180" viewBox="0 0 100 100"><path d="M33.8 15.7 L37.6 28.4" fill="none" stroke="#28231d" stroke-width="5" stroke-linecap="round" stroke-linejoin="round"/><path d="M19.4 23.9 L40.7 21.9" fill="none" stroke="#28231d" stroke-width="5" stroke-linecap="round" stroke-linejoin="round"/><path d="M51 20.7 L74.4 20.5" fill="none" stroke="#28231d" stroke-width="5" stroke-linecap="round" stroke-linejoin="round"/><path d="M59.1 11.5 L53.6 27.6" fill="none" stroke="#28231d" stroke-width="5" stroke-linecap="round" stroke-linejoin="round"/><path d="M49.4 29.5 L39.5 34.3 L31.2 36.9" fill="none" stroke="#28231d" stroke-width="5" stroke-linecap="round" stroke-linejoin="round"/><path d="M31.2 38.1 L23.5 50.5" fill="none" stroke="#28231d" stroke-width="5" stroke-linecap="round" stroke-linejoin="round"/><path d="M38.5 38.8 L45.7 48.8" fill="none" stroke="#28231d" stroke-width="5" stroke-linecap="round" stroke-linejoin="round"/><path d="M56.7 37.5 L64 46.8" fill="none" stroke="#28231d" stroke-width="5" stroke-linecap="round" stroke-linejoin="round"/><path d="M18.3 59.4 L74.9 55.8" fill="none" stroke="#28231d" stroke-width="5" stroke-linecap="round" stroke-linejoin="round"/><path d="M45 50.4 L46.7 90" fill="none" stroke="#28231d" stroke-width="5" stroke-linecap="round" stroke-linejoin="round"/><path d="M45.7 59.7 L32.4 72.6 L15.8 82" fill="none" stroke="#28231d" stroke-width="5" stroke-linecap="round" stroke-linejoin="round"/><path d="M47.2 59.5 L66.6 77.1 L84.2 81" fill="none" stroke="#28231d" stroke-width="5" stroke-linecap="round" stroke-linejoin="round"/></svg></g><g transform="translate(0 230)"><text x="12" y="22" font-size="17">策 12획</text><svg x="10" y="35" width="180" height="180" viewBox="0 0 100 100"><path d="M30 14 L29.7 19.6 L25.3 28.1 L19.2 34.4" fill="none" stroke="#28231d" stroke-width="5" stroke-linecap="round" stroke-linejoin="round"/><path d="M27.4 22.7 L46.8 19.7" fill="none" stroke="#28231d" stroke-width="5" stroke-linecap="round" stroke-linejoin="round"/><path d="M31.8 27.9 L38.6 33.5" fill="none" stroke="#28231d" stroke-width="5" stroke-linecap="round" stroke-linejoin="round"/><path d="M55.1 11.3 L53.3 22.3 L47 30.3" fill="none" stroke="#28231d" stroke-width="5" stroke-linecap="round" stroke-linejoin="round"/><path d="M54.3 20.2 L75.2 18.2" fill="none" stroke="#28231d" stroke-width="5" stroke-linecap="round" stroke-linejoin="round"/><path d="M58.8 25.5 L68 31.8" fill="none" stroke="#28231d" stroke-width="5" stroke-linecap="round" stroke-linejoin="round"/><path d="M31.2 40 L61.1 36.9" fill="none" stroke="#28231d" stroke-width="5" stroke-linecap="round" stroke-linejoin="round"/><path d="M28 50.2 L32 65.1" fill="none" stroke="#28231d" stroke-width="5" stroke-linecap="round" stroke-linejoin="round"/><path d="M30 51 L63.6 46.5 L66.5 49.7 L62.4 60.2 L60.2 62.4 L54.5 56.9" fill="none" stroke="#28231d" stroke-width="5" stroke-linecap="round" stroke-linejoin="round"/><path d="M45 33.5 L45.8 90" fill="none" stroke="#28231d" stroke-width="5" stroke-linecap="round" stroke-linejoin="round"/><path d="M45.4 57.5 L41.9 64 L35.2 69.1 L17.1 81.4" fill="none" stroke="#28231d" stroke-width="5" stroke-linecap="round" stroke-linejoin="round"/><path d="M46.8 58.6 L66.9 77.3 L82.9 80.8" fill="none" stroke="#28231d" stroke-width="5" stroke-linecap="round" stroke-linejoin="round"/></svg></g><g transform="translate(200 230)"><text x="12" y="22" font-size="17">妻 8획</text><svg x="10" y="35" width="180" height="180" viewBox="0 0 100 100"><path d="M34.5 21.5 L65.3 17.7" fill="none" stroke="#28231d" stroke-width="5" stroke-linecap="round" stroke-linejoin="round"/><path d="M33.5 32.4 L62.4 28.9 L65.2 32.2 L61 48.2" fill="none" stroke="#28231d" stroke-width="5" stroke-linecap="round" stroke-linejoin="round"/><path d="M21.1 41.9 L80.2 37.5" fill="none" stroke="#28231d" stroke-width="5" stroke-linecap="round" stroke-linejoin="round"/><path d="M32.1 50.4 L64.9 47.2" fill="none" stroke="#28231d" stroke-width="5" stroke-linecap="round" stroke-linejoin="round"/><path d="M48.2 11.5 L47.5 48" fill="none" stroke="#28231d" stroke-width="5" stroke-linecap="round" stroke-linejoin="round"/><path d="M44.3 52 L38.1 71.9 L56.6 80.2 L68 90" fill="none" stroke="#28231d" stroke-width="5" stroke-linecap="round" stroke-linejoin="round"/><path d="M59.8 58.5 L57.2 69 L51.3 77.3 L39.4 84.5 L25 87.5" fill="none" stroke="#28231d" stroke-width="5" stroke-linecap="round" stroke-linejoin="round"/><path d="M12.1 64.2 L85 60.2" fill="none" stroke="#28231d" stroke-width="5" stroke-linecap="round" stroke-linejoin="round"/></svg></g><g transform="translate(400 230)"><text x="12" y="22" font-size="17">尺 4획</text><svg x="10" y="35" width="180" height="180" viewBox="0 0 100 100"><path d="M33.6 22.5 L60.3 18.2 L65.5 22.5 L59 37.9" fill="none" stroke="#28231d" stroke-width="5" stroke-linecap="round" stroke-linejoin="round"/><path d="M31.7 42 L62.5 37.9" fill="none" stroke="#28231d" stroke-width="5" stroke-linecap="round" stroke-linejoin="round"/><path d="M32.6 21.8 L31.7 43 L29.7 57.1 L22.2 71.8 L10 81.8" fill="none" stroke="#28231d" stroke-width="5" stroke-linecap="round" stroke-linejoin="round"/><path d="M32.8 43.4 L45 58 L66.5 75.4 L90 81.3" fill="none" stroke="#28231d" stroke-width="5" stroke-linecap="round" stroke-linejoin="round"/></svg></g><g transform="translate(600 230)"><text x="12" y="22" font-size="17">戚 11획</text><svg x="10" y="35" width="180" height="180" viewBox="0 0 100 100"><path d="M28 34.7 L26.4 62.2 L20.3 75.5 L10 84.4" fill="none" stroke="#28231d" stroke-width="5" stroke-linecap="round" stroke-linejoin="round"/><path d="M28.5 35.7 L70.5 29.6" fill="none" stroke="#28231d" stroke-width="5" stroke-linecap="round" stroke-linejoin="round"/><path d="M42.5 39.2 L42.9 57" fill="none" stroke="#28231d" stroke-width="5" stroke-linecap="round" stroke-linejoin="round"/><path d="M43.1 48.8 L54.7 46.7" fill="none" stroke="#28231d" stroke-width="5" stroke-linecap="round" stroke-linejoin="round"/><path d="M28.4 59.6 L55.7 56.5" fill="none" stroke="#28231d" stroke-width="5" stroke-linecap="round" stroke-linejoin="round"/><path d="M42.9 59.3 L42.9 79.8 L41 81.6 L35.3 77.9" fill="none" stroke="#28231d" stroke-width="5" stroke-linecap="round" stroke-linejoin="round"/><path d="M34.4 67 L29.6 76.1" fill="none" stroke="#28231d" stroke-width="5" stroke-linecap="round" stroke-linejoin="round"/><path d="M50.4 65.2 L55 70.8" fill="none" stroke="#28231d" stroke-width="5" stroke-linecap="round" stroke-linejoin="round"/><path d="M51.7 13.6 L54.4 16.7 L61 51.1 L71.9 74.4 L79.8 82.9 L87.4 87.4 L90 70.9" fill="none" stroke="#28231d" stroke-width="5" stroke-linecap="round" stroke-linejoin="round"/><path d="M74.1 42.6 L69.9 61.4 L62.6 71.6 L51.3 81.3" fill="none" stroke="#28231d" stroke-width="5" stroke-linecap="round" stroke-linejoin="round"/><path d="M65.4 15.6 L73.1 20.2 L75.7 24.1" fill="none" stroke="#28231d" stroke-width="5" stroke-linecap="round" stroke-linejoin="round"/></svg></g><g transform="translate(800 230)"><text x="12" y="22" font-size="17">拓 8획</text><svg x="10" y="35" width="180" height="180" viewBox="0 0 100 100"><path d="M17.3 39.9 L46.8 34.2" fill="none" stroke="#28231d" stroke-width="5" stroke-linecap="round" stroke-linejoin="round"/><path d="M35 12 L36 30 L35.1 82.1 L32.5 90 L25.4 82" fill="none" stroke="#28231d" stroke-width="5" stroke-linecap="round" stroke-linejoin="round"/><path d="M12 66.5 L45 49.4" fill="none" stroke="#28231d" stroke-width="5" stroke-linecap="round" stroke-linejoin="round"/><path d="M54 35.6 L89.7 30.2" fill="none" stroke="#28231d" stroke-width="5" stroke-linecap="round" stroke-linejoin="round"/><path d="M64.5 34.2 L60.7 47.5 L57.7 56.1 L50 66.7 L38.6 76.9" fill="none" stroke="#28231d" stroke-width="5" stroke-linecap="round" stroke-linejoin="round"/><path d="M57.3 61.6 L61.1 86" fill="none" stroke="#28231d" stroke-width="5" stroke-linecap="round" stroke-linejoin="round"/><path d="M57.8 63 L79.6 58.9 L85 60.8 L86.8 63.6 L82.1 79.8" fill="none" stroke="#28231d" stroke-width="5" stroke-linecap="round" stroke-linejoin="round"/><path d="M60.5 83 L85 79.1" fill="none" stroke="#28231d" stroke-width="5" stroke-linecap="round" stroke-linejoin="round"/></svg></g><g transform="translate(0 460)"><text x="12" y="22" font-size="17">踐 15획</text><svg x="10" y="35" width="180" height="180" viewBox="0 0 100 100"><path d="M19.7 29.5 L24.9 45.4" fill="none" stroke="#28231d" stroke-width="5" stroke-linecap="round" stroke-linejoin="round"/><path d="M22 30 L37.4 27.6 L39.4 29.5 L35.9 42.1" fill="none" stroke="#28231d" stroke-width="5" stroke-linecap="round" stroke-linejoin="round"/><path d="M24.4 43.3 L37.5 41" fill="none" stroke="#28231d" stroke-width="5" stroke-linecap="round" stroke-linejoin="round"/><path d="M30.5 42.3 L30.2 73.1" fill="none" stroke="#28231d" stroke-width="5" stroke-linecap="round" stroke-linejoin="round"/><path d="M30.7 56 L42 53" fill="none" stroke="#28231d" stroke-width="5" stroke-linecap="round" stroke-linejoin="round"/><path d="M18.7 56.5 L22.3 75.7" fill="none" stroke="#28231d" stroke-width="5" stroke-linecap="round" stroke-linejoin="round"/><path d="M10 78.4 L43.8 68.6" fill="none" stroke="#28231d" stroke-width="5" stroke-linecap="round" stroke-linejoin="round"/><path d="M47.1 35.2 L70.3 25.3" fill="none" stroke="#28231d" stroke-width="5" stroke-linecap="round" stroke-linejoin="round"/><path d="M52.5 15.5 L56.3 24 L62.5 33.5 L74.7 45.4 L84.7 48 L84.1 38.3" fill="none" stroke="#28231d" stroke-width="5" stroke-linecap="round" stroke-linejoin="round"/><path d="M77.1 27 L72.5 35.4 L68.6 39.9 L61.3 44" fill="none" stroke="#28231d" stroke-width="5" stroke-linecap="round" stroke-linejoin="round"/><path d="M65 10.4 L73.6 14.7 L76.5 18.8" fill="none" stroke="#28231d" stroke-width="5" stroke-linecap="round" stroke-linejoin="round"/><path d="M44.5 61.6 L66.3 55.6" fill="none" stroke="#28231d" stroke-width="5" stroke-linecap="round" stroke-linejoin="round"/><path d="M52 48.1 L55.4 53 L62.2 67 L75.8 84.5 L83.3 89.2 L89.5 89.6 L90 76.2" fill="none" stroke="#28231d" stroke-width="5" stroke-linecap="round" stroke-linejoin="round"/><path d="M74 57.5 L70 66 L63.6 72.6 L53.3 79.1 L44 82.4" fill="none" stroke="#28231d" stroke-width="5" stroke-linecap="round" stroke-linejoin="round"/><path d="M65 49 L68.8 50.8" fill="none" stroke="#28231d" stroke-width="5" stroke-linecap="round" stroke-linejoin="round"/></svg></g><g transform="translate(200 460)"><text x="12" y="22" font-size="17">賤 15획</text><svg x="10" y="35" width="180" height="180" viewBox="0 0 100 100"><path d="M21.2 25.8 L22.2 64.9" fill="none" stroke="#28231d" stroke-width="5" stroke-linecap="round" stroke-linejoin="round"/><path d="M22.7 27 L34.3 23.7 L38.5 26.1 L37.3 65.9" fill="none" stroke="#28231d" stroke-width="5" stroke-linecap="round" stroke-linejoin="round"/><path d="M23.2 39 L37.9 37.3" fill="none" stroke="#28231d" stroke-width="5" stroke-linecap="round" stroke-linejoin="round"/><path d="M23.2 49.2 L37.7 47.6" fill="none" stroke="#28231d" stroke-width="5" stroke-linecap="round" stroke-linejoin="round"/><path d="M23.3 61.6 L37 59.8" fill="none" stroke="#28231d" stroke-width="5" stroke-linecap="round" stroke-linejoin="round"/><path d="M24 69.9 L16.8 80.2 L10 85" fill="none" stroke="#28231d" stroke-width="5" stroke-linecap="round" stroke-linejoin="round"/><path d="M32.9 69.8 L40.7 80.1" fill="none" stroke="#28231d" stroke-width="5" stroke-linecap="round" stroke-linejoin="round"/><path d="M47.8 34.1 L71.6 25.6" fill="none" stroke="#28231d" stroke-width="5" stroke-linecap="round" stroke-linejoin="round"/><path d="M54.8 15.2 L58.8 23.5 L63.2 34.3 L74.9 48.7 L84.5 52.1 L84.1 42.3" fill="none" stroke="#28231d" stroke-width="5" stroke-linecap="round" stroke-linejoin="round"/><path d="M78.4 30.5 L71 37.8 L60.2 44.6" fill="none" stroke="#28231d" stroke-width="5" stroke-linecap="round" stroke-linejoin="round"/><path d="M65 12.7 L76.1 19.2" fill="none" stroke="#28231d" stroke-width="5" stroke-linecap="round" stroke-linejoin="round"/><path d="M43.9 62.5 L67.1 55.8" fill="none" stroke="#28231d" stroke-width="5" stroke-linecap="round" stroke-linejoin="round"/><path d="M52 48.4 L55.5 54 L63.4 69.5 L75.7 82.8 L84.8 87.2 L89.2 87.3 L90 74.2" fill="none" stroke="#28231d" stroke-width="5" stroke-linecap="round" stroke-linejoin="round"/><path d="M73.3 57.7 L70 65.8 L66.5 70.5 L56.2 78.6 L44.9 83.4" fill="none" stroke="#28231d" stroke-width="5" stroke-linecap="round" stroke-linejoin="round"/><path d="M64.2 50 L69 52.1" fill="none" stroke="#28231d" stroke-width="5" stroke-linecap="round" stroke-linejoin="round"/></svg></g><g transform="translate(400 460)"><text x="12" y="22" font-size="17">淺 11획</text><svg x="10" y="35" width="180" height="180" viewBox="0 0 100 100"><path d="M19.7 20.5 L31.9 30.4" fill="none" stroke="#28231d" stroke-width="5" stroke-linecap="round" stroke-linejoin="round"/><path d="M13.4 43.2 L25 51.4" fill="none" stroke="#28231d" stroke-width="5" stroke-linecap="round" stroke-linejoin="round"/><path d="M18.6 83 L31.1 54.7" fill="none" stroke="#28231d" stroke-width="5" stroke-linecap="round" stroke-linejoin="round"/><path d="M37.1 35.3 L62.5 25.4" fill="none" stroke="#28231d" stroke-width="5" stroke-linecap="round" stroke-linejoin="round"/><path d="M41 11.8 L47 19 L54.3 30.3 L67.5 42.5 L80.8 46.2 L79.2 35.7" fill="none" stroke="#28231d" stroke-width="5" stroke-linecap="round" stroke-linejoin="round"/><path d="M71.4 24.6 L68.6 33 L53.1 45.9" fill="none" stroke="#28231d" stroke-width="5" stroke-linecap="round" stroke-linejoin="round"/><path d="M56.3 11.1 L64.2 13.9 L68.7 17.9" fill="none" stroke="#28231d" stroke-width="5" stroke-linecap="round" stroke-linejoin="round"/><path d="M35.9 62.5 L61.2 54.5" fill="none" stroke="#28231d" stroke-width="5" stroke-linecap="round" stroke-linejoin="round"/><path d="M45.1 50.2 L49.8 58 L57.1 70.5 L71.5 85 L80 89.5 L86.6 90 L85.5 75.8" fill="none" stroke="#28231d" stroke-width="5" stroke-linecap="round" stroke-linejoin="round"/><path d="M68.2 57.6 L64.5 66 L58.5 71.7 L45.7 81 L34.8 85.9" fill="none" stroke="#28231d" stroke-width="5" stroke-linecap="round" stroke-linejoin="round"/><path d="M60.2 47.9 L65 50.4" fill="none" stroke="#28231d" stroke-width="5" stroke-linecap="round" stroke-linejoin="round"/></svg></g></svg>
