<svg xmlns="http://www.w3.org/2000/svg" viewBox="0 0 1000 1000"><!-- Noto Serif CJK KR 2.003 outlines; SIL OFL 1.1. See OFL.txt and NOTICE.txt. --><g id="glyph" fill="currentColor" transform="translate(7 873) scale(1)"><path d="M87-828L78-819C121-788 174-733 189-686C262-645 304-792 87-828ZM42-576L33-568C76-540 126-490 140-446C210-405 252-546 42-576ZM93-199C82-199 48-199 48-199L48-177C70-175 85-174 98-164C120-149 125-71 112 31C114 64 125 82 143 82C177 82 196 56 198 13C201-69 174-115 173-160C173-184 180-215 188-246C202-294 286-526 329-650L310-655C136-255 136-255 118-220C108-200 105-199 93-199ZM504-565L504-126L513-126C542-126 561-141 561-147L561-221L696-221L696-153L704-153C724-153 753-168 754-174L754-531C767-533 780-539 785-546L719-597L688-565L571-565L504-594ZM561-249L561-535L696-535L696-249ZM348-771L348 78L360 78C388 78 411 62 411 52L411-742L845-742L845-24C845-8 841-2 823-2C804-2 706-9 706-9L706 6C749 12 773 19 787 30C801 40 806 57 808 76C898 67 909 35 909-17L909-729C929-732 946-741 953-749L869-813L835-771L416-771L348-804Z"/></g></svg>
