<svg xmlns="http://www.w3.org/2000/svg" viewBox="0 0 1000 1000"><!-- Noto Serif CJK KR 2.003 outlines; SIL OFL 1.1. See OFL.txt and NOTICE.txt. --><g id="glyph" fill="currentColor" transform="translate(9.43194 873.226152) scale(0.986066)"><path d="M693-471L683-462C707-442 737-406 746-376C802-341 848-447 693-471ZM797-315L797-184L528-184L528-315ZM292-834C271-791 240-741 203-691C170-734 128-774 74-810L59-796C110-751 147-704 175-655C131-601 82-549 31-508L41-496C97-528 150-567 197-610C211-578 222-546 229-513C191-403 116-281 31-200L42-188C126-243 203-323 247-394C249-361 250-329 250-295C250-184 238-61 210-20C202-9 194-6 177-6C137-6 61-13 61-13L61 4C96 11 121 20 135 30C147 39 153 54 153 78C202 78 237 66 256 39C297-16 311-120 314-227L315-226C367-249 417-275 464-303L464 79L474 79C507 79 528 63 528 58L528 20L797 20L797 70L807 70C828 70 860 55 861 48L861-305C879-308 894-316 901-323L823-383L788-345L538-345L532-347C594-390 651-437 702-486L937-486C952-486 961-491 964-501C931-532 880-573 880-573L833-515L731-515C805-590 866-670 910-745C935-740 945-744 952-754L860-801C842-765 820-727 796-690C766-717 730-745 730-745L686-689L619-689L619-801C641-805 649-814 651-827L554-836L554-689L366-689L374-659L554-659L554-515L325-515L333-486L630-486C588-443 542-402 493-364L464-376L464-341C417-306 367-273 315-245L315-296C313-424 296-542 234-645C280-690 319-736 347-776C369-772 378-776 385-786ZM797-155L797-10L528-10L528-155ZM619-659L775-659C740-610 701-562 657-515L619-515Z"/></g></svg>
