<svg xmlns="http://www.w3.org/2000/svg" viewBox="0 0 1000 1000"><!-- Noto Serif CJK KR 2.003 outlines; SIL OFL 1.1. See OFL.txt and NOTICE.txt. --><g id="glyph" fill="currentColor" transform="translate(21.554652 867.936152) scale(0.970808)"><path d="M777-764L765-755C821-707 892-627 913-567C983-520 1024-667 777-764ZM361-325C349-256 329-180 311-131L328-122C360-164 393-223 417-275C437-275 448-283 452-295ZM95-316L80-312C98-259 118-177 112-114C162-57 227-180 95-316ZM566-341L835-341L835-197L566-197ZM566-370L566-513L835-513L835-370ZM547-774C526-691 477-581 417-506L428-492C455-515 480-540 504-568L504 77L515 77C543 77 566 62 566 55L566-168L835-168L835-23C835-8 830-3 814-3C795-3 706-10 706-10L706 6C746 12 768 19 782 30C794 40 799 58 801 78C888 69 899 36 899-15L899-500C918-505 934-513 941-521L858-583L825-543L726-543L726-800C749-804 758-813 760-827L663-836L663-543L571-543L507-572C550-622 586-677 607-725C626-722 637-725 641-735ZM43-14L91 69C101 65 109 57 112 44C269-14 382-63 463-97L459-112L277-67L277-370L433-370C446-370 455-374 457-385C429-415 381-454 381-454L338-398L277-398L277-528L407-528C420-528 431-533 433-544C403-572 357-611 357-611L316-558L124-558C182-625 231-703 264-769C329-719 380-658 404-615C463-577 530-698 278-785C299-786 307-793 310-803L214-835C183-730 101-569 19-480L32-469C61-492 89-519 116-549L121-528L217-528L217-398L48-398L56-370L217-370L217-52C142-35 80-21 43-14Z"/></g></svg>
